<?xml version="1.0" encoding="UTF-8"?>
<svg
    xmlns="http://www.w3.org/2000/svg"
    version="1.1"
    viewBox="0 0 210.74 40.07"
    fill="#f43f5e"
>
    <path
        d="M15.12,21.98c.94.85,1.4,2,1.4,3.44,0,1.06-.31,2-.94,2.84-.62.84-1.49,1.5-2.61,1.98-1.12.48-2.41.72-3.87.72-2.28,0-4.09-.4-5.44-1.19-1.34-.79-2.02-1.84-2.02-3.13,0-.74.23-1.35.68-1.82.46-.47,1.06-.7,1.8-.7.67,0,1.24.23,1.71.7.47.47.7,1.05.7,1.75,0,.29-.06.58-.18.86.55.41,1.44.61,2.66.61,1.03,0,1.82-.18,2.38-.54.55-.36.83-.85.83-1.48s-.21-1.1-.63-1.44c-.42-.34-1.28-.68-2.57-1.04-1.8-.5-3.2-1.02-4.21-1.55-1.01-.53-1.73-1.13-2.16-1.82-.43-.68-.65-1.53-.65-2.54s.31-1.99.94-2.81c.62-.82,1.49-1.45,2.61-1.91s2.39-.68,3.83-.68c2.11,0,3.79.37,5.02,1.1,1.24.73,1.85,1.73,1.85,3.01,0,.74-.22,1.34-.67,1.8-.44.46-1.05.68-1.82.68-.67,0-1.24-.23-1.71-.7-.47-.47-.7-1.04-.7-1.71,0-.31.05-.56.14-.76-.43-.34-1.18-.5-2.23-.5-.91,0-1.64.19-2.18.58-.54.38-.81.89-.81,1.51,0,.53.27.96.81,1.3.54.34,1.6.73,3.19,1.19,2.28.65,3.89,1.4,4.82,2.25Z"
    />
    <path
        d="M39.42,28.15v1.22c0,.82-.47,1.22-1.4,1.22h-3.53c-.43,0-.8-.15-1.1-.45-.3-.3-.45-.65-.45-1.06v-2.23c-.48,1.2-1.23,2.18-2.25,2.95-1.02.77-2.11,1.15-3.26,1.15-1.97,0-3.45-.65-4.45-1.94-1-1.3-1.49-3.19-1.49-5.69v-7.06h-.76c-.94,0-1.4-.41-1.4-1.22v-1.22c0-.82.47-1.22,1.4-1.22h3.53c.43,0,.79.14,1.08.43s.43.65.43,1.08v8.14c0,1.92.2,3.25.61,4,.41.74,1.14,1.12,2.2,1.12.77,0,1.49-.25,2.16-.74.67-.49,1.21-1.15,1.6-1.96.4-.82.59-1.68.59-2.59v-5.8h-.76c-.94,0-1.4-.41-1.4-1.22v-1.22c0-.82.47-1.22,1.4-1.22h3.56c.43,0,.79.14,1.06.43s.41.65.41,1.08v12.82h.79c.94,0,1.4.41,1.4,1.22Z"
    />
    <path
        d="M59.04,14.69c1.27,1.63,1.91,3.83,1.91,6.59,0,3.05-.7,5.42-2.11,7.13-1.4,1.7-3.37,2.56-5.89,2.56-.91,0-1.78-.19-2.61-.58-.83-.38-1.55-.95-2.18-1.69v6.52h.76c.94,0,1.4.41,1.4,1.22v1.22c0,.82-.47,1.22-1.4,1.22h-5.83c-.94,0-1.4-.41-1.4-1.22v-1.22c0-.82.47-1.22,1.4-1.22h.79v-18.94h-.79c-.94,0-1.4-.41-1.4-1.22v-1.22c0-.82.47-1.22,1.4-1.22h3.56c.43,0,.79.15,1.08.45.29.3.43.65.43,1.06v1.91c.46-1.1,1.21-2.01,2.27-2.72,1.06-.71,2.2-1.06,3.42-1.06,2.18,0,3.91.82,5.18,2.45ZM55.51,25.79c.72-1.04,1.08-2.55,1.08-4.52,0-1.73-.35-3.07-1.04-4.01-.7-.95-1.67-1.42-2.92-1.42-.82,0-1.57.24-2.25.72-.68.48-1.22,1.13-1.62,1.96-.4.83-.59,1.73-.59,2.72v4.03c.55.67,1.19,1.19,1.91,1.55.72.36,1.49.54,2.3.54,1.37,0,2.41-.52,3.13-1.57Z"
    />
    <path
        d="M80.85,22.5h-12.06c.17,1.51.66,2.7,1.48,3.56.82.86,1.88,1.3,3.2,1.3.89,0,1.6-.14,2.12-.41.53-.28,1.03-.75,1.51-1.42.46-.5.92-.76,1.4-.76s.89.14,1.22.41c.33.28.5.64.5,1.1,0,.5-.18,1.03-.54,1.58-1.44,2.06-3.58,3.1-6.41,3.1-1.8,0-3.37-.4-4.72-1.19-1.34-.79-2.38-1.9-3.1-3.33-.72-1.43-1.08-3.08-1.08-4.95s.36-3.51,1.08-4.91c.72-1.4,1.73-2.48,3.04-3.22,1.31-.74,2.83-1.12,4.55-1.12,1.51,0,2.86.32,4.05.97,1.19.65,2.12,1.61,2.81,2.88.68,1.27,1.03,2.81,1.03,4.61,0,.26-.04.86-.11,1.8ZM70.2,16.61c-.7.68-1.14,1.71-1.33,3.08h7.74v-.22c0-1.3-.32-2.27-.95-2.92s-1.53-.97-2.68-.97-2.08.34-2.77,1.03Z"
    />
    <path
        d="M98.5,13.07c.58.55.86,1.28.86,2.2,0,.79-.26,1.46-.77,2-.52.54-1.17.81-1.96.81-.67,0-1.23-.2-1.67-.59-.44-.4-.73-.92-.85-1.57-.94.22-1.73.86-2.38,1.94-.65,1.08-.97,2.29-.97,3.64v5.44h1.48c.94,0,1.4.41,1.4,1.22v1.22c0,.82-.47,1.22-1.4,1.22h-6.55c-.94,0-1.4-.41-1.4-1.22v-1.22c0-.82.47-1.22,1.4-1.22h.79v-10.66h-.79c-.94,0-1.4-.41-1.4-1.22v-1.22c0-.82.47-1.22,1.4-1.22h3.53c.43,0,.8.15,1.1.45.3.3.45.65.45,1.06v2.74c.43-1.42,1.13-2.54,2.09-3.37.96-.83,2.03-1.24,3.2-1.24,1.06,0,1.87.28,2.45.83Z"
    />
    <path
        d="M119.34,28.15v1.22c0,.82-.47,1.22-1.4,1.22h-3.53c-.43,0-.79-.15-1.08-.45-.29-.3-.43-.65-.43-1.06v-2.02c-.46,1.13-1.21,2.06-2.25,2.79s-2.14,1.1-3.29,1.1c-1.68,0-3.03-.49-4.05-1.48-1.02-.98-1.53-2.27-1.53-3.85,0-1.75.58-3.08,1.75-3.98,1.16-.9,2.89-1.35,5.17-1.35,1.39,0,2.8.16,4.21.47v-1.48c0-2.42-1.2-3.64-3.6-3.64-.77,0-1.38.13-1.84.4.02.07.04.18.04.32,0,.7-.23,1.27-.68,1.73-.46.46-1.02.68-1.69.68-.74,0-1.34-.23-1.8-.68-.46-.46-.68-1.06-.68-1.8,0-1.22.62-2.21,1.85-2.95,1.24-.74,2.85-1.12,4.84-1.12,2.57,0,4.52.66,5.85,1.98,1.33,1.32,2,3.18,2,5.58v7.13h.76c.94,0,1.4.41,1.4,1.22ZM111.53,26.35c.84-.91,1.3-2,1.37-3.28-.94-.14-2.14-.22-3.6-.22-1.13,0-1.96.2-2.48.59s-.79,1.04-.79,1.93c0,.72.23,1.29.7,1.71s1.09.63,1.85.63c1.13,0,2.11-.46,2.95-1.37Z"
    />
    <path
        d="M141.37,28.15v1.22c0,.82-.47,1.22-1.4,1.22h-3.53c-.41,0-.76-.15-1.06-.45-.3-.3-.45-.65-.45-1.06v-1.91c-.46,1.1-1.21,2.01-2.27,2.72-1.06.71-2.2,1.06-3.42,1.06-1.44,0-2.69-.37-3.76-1.12-1.07-.74-1.9-1.79-2.48-3.15-.59-1.36-.88-2.95-.88-4.77,0-3.05.71-5.42,2.12-7.13,1.42-1.7,3.37-2.56,5.87-2.56.96,0,1.86.2,2.7.61.84.41,1.55,1,2.12,1.76v-6.98h-.76c-.94,0-1.4-.41-1.4-1.22v-1.22c0-.82.47-1.22,1.4-1.22h3.53c.43,0,.79.15,1.08.45.29.3.43.65.43,1.06v21.46h.76c.94,0,1.4.41,1.4,1.22ZM132.71,26.64c.68-.48,1.22-1.13,1.62-1.96.4-.83.59-1.73.59-2.72v-4.03c-.55-.67-1.19-1.19-1.91-1.55s-1.49-.54-2.3-.54c-1.37,0-2.42.52-3.15,1.57-.73,1.04-1.1,2.55-1.1,4.52,0,1.73.35,3.07,1.04,4.01.7.95,1.68,1.42,2.95,1.42.82,0,1.57-.24,2.25-.72Z"
    />
    <path
        d="M175.35,28.15v1.22c0,.82-.47,1.22-1.4,1.22h-5.65c-.94,0-1.4-.41-1.4-1.22v-1.22c0-.82.47-1.22,1.4-1.22h.58v-5.98c0-1.32-.08-2.35-.23-3.08-.16-.73-.43-1.25-.83-1.57-.4-.31-.94-.47-1.64-.47-.75,0-1.45.25-2.11.74-.66.49-1.19,1.15-1.58,1.96-.4.82-.59,1.68-.59,2.59v5.8h.61c.94,0,1.4.41,1.4,1.22v1.22c0,.82-.47,1.22-1.4,1.22h-5.47c-.94,0-1.4-.41-1.4-1.22v-1.22c0-.82.47-1.22,1.4-1.22h.61v-5.98c0-1.32-.08-2.34-.25-3.06-.17-.72-.45-1.24-.85-1.57-.4-.32-.94-.49-1.64-.49-.74,0-1.44.25-2.09.74-.65.49-1.17,1.15-1.57,1.96-.4.82-.59,1.68-.59,2.59v5.8h.58c.94,0,1.4.41,1.4,1.22v1.22c0,.82-.47,1.22-1.4,1.22h-5.65c-.94,0-1.4-.41-1.4-1.22v-1.22c0-.82.47-1.22,1.4-1.22h.79v-10.66h-.79c-.94,0-1.4-.41-1.4-1.22v-1.22c0-.82.47-1.22,1.4-1.22h3.53c.43,0,.8.15,1.1.45.3.3.45.65.45,1.06v2.2c.48-1.2,1.22-2.18,2.23-2.93s2.06-1.13,3.17-1.13c2.93,0,4.75,1.45,5.47,4.36.7-1.39,1.56-2.47,2.59-3.22s2.1-1.13,3.2-1.13c1.92,0,3.37.64,4.36,1.93.98,1.28,1.48,3.19,1.48,5.71v7.06h.79c.94,0,1.4.41,1.4,1.22Z"
    />
    <path
        d="M177.98,29.38v-1.22c0-.82.47-1.22,1.4-1.22h.79v-10.66h-.79c-.94,0-1.4-.41-1.4-1.22v-1.22c0-.82.47-1.22,1.4-1.22h3.53c.43,0,.8.15,1.1.45.3.3.45.65.45,1.06v12.82h.76c.94,0,1.4.41,1.4,1.22v1.22c0,.82-.47,1.22-1.4,1.22h-5.83c-.94,0-1.4-.41-1.4-1.22ZM179.64,8.66c-.55-.54-.83-1.22-.83-2.03s.28-1.5.83-2.05c.55-.55,1.24-.83,2.05-.83s1.5.28,2.05.83c.55.55.83,1.24.83,2.05s-.28,1.49-.83,2.03c-.55.54-1.24.81-2.05.81s-1.5-.27-2.05-.81Z"
    />
    <path
        d="M209.73,28.15v1.22c0,.82-.47,1.22-1.4,1.22h-5.65c-.94,0-1.4-.41-1.4-1.22v-1.22c0-.82.47-1.22,1.4-1.22h.58v-5.98c0-1.9-.22-3.22-.65-3.98-.43-.76-1.19-1.13-2.27-1.13-.77,0-1.49.25-2.18.74-.68.49-1.24,1.15-1.66,1.96-.42.82-.63,1.68-.63,2.59v5.8h.58c.94,0,1.4.41,1.4,1.22v1.22c0,.82-.47,1.22-1.4,1.22h-5.65c-.94,0-1.4-.41-1.4-1.22v-1.22c0-.82.47-1.22,1.4-1.22h.79v-10.66h-.79c-.94,0-1.4-.41-1.4-1.22v-1.22c0-.82.47-1.22,1.4-1.22h3.53c.43,0,.8.15,1.1.45.3.3.45.65.45,1.06v2.23c.5-1.2,1.28-2.18,2.32-2.95,1.04-.77,2.14-1.15,3.29-1.15,1.99,0,3.5.65,4.52,1.94,1.02,1.3,1.53,3.19,1.53,5.69v7.06h.79c.94,0,1.4.41,1.4,1.22Z"
    />
</svg>
